# Blender v2.78 (sub 0) OBJ File: 'pyramid_one_01.blend'
# www.blender.org
mtllib pyramid_one_01.mtl
o Cube
v 1.000000 -1.000000 -1.000000
v 1.000000 -1.000000 1.000000
v -1.000000 -1.000000 1.000000
v -1.000000 -1.000000 -1.000000
v 1.000000 1.000000 -0.999999
v 0.999999 1.000000 1.000001
v -1.000000 1.000000 1.000000
v -1.000000 1.000000 -1.000000
v 3.000000 -1.000000 -0.999999
v 3.000000 -1.000000 1.000001
v 3.000000 1.000000 -0.999999
v 2.999999 1.000000 1.000001
v 5.000000 -1.000000 -0.999999
v 5.000000 -1.000000 1.000001
v 5.000000 1.000000 -0.999998
v 4.999999 1.000000 1.000002
v 7.000000 -1.000000 -0.999998
v 7.000000 -1.000000 1.000002
v 7.000000 1.000000 -0.999998
v 6.999999 1.000000 1.000003
v 9.000000 -0.999999 -0.999997
v 9.000000 -0.999999 1.000003
v 9.000000 1.000001 -0.999997
v 8.999999 1.000001 1.000003
v 11.000000 -0.999999 -0.999997
v 11.000000 -0.999999 1.000003
v 11.000000 1.000001 -0.999996
v 10.999999 1.000001 1.000004
v 1.000000 3.000000 -0.999999
v 0.999999 3.000000 1.000001
v -1.000000 3.000000 -1.000000
v -1.000000 3.000000 1.000000
v 1.000000 5.000000 -0.999999
v 0.999999 5.000000 1.000001
v -1.000000 5.000000 -1.000000
v -1.000000 5.000000 1.000000
v 1.000000 7.000000 -0.999999
v 0.999999 7.000000 1.000001
v -1.000000 7.000000 -1.000000
v -1.000000 7.000000 1.000000
v 1.000000 9.000000 -0.999999
v 0.999999 9.000000 1.000001
v -1.000000 9.000000 -1.000000
v -1.000000 9.000000 1.000000
v 1.000000 11.000000 -0.999999
v 0.999999 11.000000 1.000001
v -1.000000 11.000000 -1.000000
v -1.000000 11.000000 1.000000
v 1.000001 9.000000 -3.000000
v -0.999999 9.000000 -3.000000
v 1.000001 11.000000 -3.000000
v -0.999999 11.000000 -3.000000
v 1.000001 9.000000 -5.000000
v -0.999999 9.000000 -5.000000
v 1.000001 11.000000 -5.000000
v -0.999999 11.000000 -5.000000
v 1.000002 9.000000 -7.000000
v -0.999998 9.000000 -7.000000
v 1.000002 11.000000 -7.000000
v -0.999998 11.000000 -7.000000
v 1.000002 9.000000 -9.000000
v -0.999998 9.000000 -9.000000
v 1.000002 11.000000 -9.000000
v -0.999998 11.000000 -9.000000
vn 0.0000 1.0000 0.0000
vn 0.0000 -1.0000 0.0000
vn -1.0000 0.0000 -0.0000
vn 1.0000 0.0000 0.0000
vn 0.0000 0.0000 1.0000
vn 0.0000 0.0000 -1.0000
usemtl Material.001
s off
f 1//1 4//1 3//1 2//1
f 6//2 5//2 11//2 12//2
f 1//1 2//1 10//1 9//1
f 16//2 15//2 19//2 20//2
f 9//1 10//1 14//1 13//1
f 12//2 11//2 15//2 16//2
f 13//1 14//1 18//1 17//1
f 17//1 18//1 22//1 21//1
f 20//2 19//2 23//2 24//2
f 25//3 26//3 28//3 27//3
f 21//1 22//1 26//1 25//1
f 24//2 23//2 27//2 28//2
f 5//3 6//3 30//3 29//3
f 29//3 30//3 34//3 33//3
f 33//3 34//3 38//3 37//3
f 37//3 38//3 42//3 41//3
f 45//2 46//2 48//2 47//2
f 41//3 42//3 46//3 45//3
f 45//2 47//2 52//2 51//2
f 41//3 45//3 51//3 49//3
f 53//3 55//3 59//3 57//3
f 51//2 52//2 56//2 55//2
f 49//3 51//3 55//3 53//3
f 58//4 62//4 64//4
f 55//2 56//2 60//2 59//2
f 61//5 63//5 64//5
f 59//2 60//2 64//2 63//2
f 57//3 59//3 63//3 61//3
f 62//5 61//5 64//5
usemtl Material.002
f 6//6 7//6 32//6 30//6
f 2//6 3//6 7//6 6//6
f 5//5 8//5 4//5 1//5
f 10//6 12//6 16//6 14//6
f 2//6 6//6 12//6 10//6
f 5//5 1//5 9//5 11//5
f 11//5 9//5 13//5 15//5
f 19//5 17//5 21//5 23//5
f 15//5 13//5 17//5 19//5
f 14//6 16//6 20//6 18//6
f 22//6 24//6 28//6 26//6
f 18//6 20//6 24//6 22//6
f 23//5 21//5 25//5 27//5
f 30//6 32//6 36//6 34//6
f 8//5 5//5 29//5 31//5
f 34//6 36//6 40//6 38//6
f 31//5 29//5 33//5 35//5
f 35//5 33//5 37//5 39//5
f 42//6 44//6 48//6 46//6
f 39//5 37//5 41//5 43//5
f 38//6 40//6 44//6 42//6
f 43//1 41//1 49//1 50//1
f 50//1 49//1 53//1 54//1
f 54//1 53//1 57//1 58//1
f 58//1 57//1 61//1 62//1
usemtl Material.003
f 3//4 4//4 8//4 7//4
f 7//4 8//4 31//4 32//4
f 32//4 31//4 35//4 36//4
f 40//4 39//4 43//4 44//4
f 36//4 35//4 39//4 40//4
f 44//4 43//4 47//4 48//4
f 47//4 43//4 50//4 52//4
f 52//4 50//4 54//4 56//4
f 56//4 54//4 58//4 60//4
f 60//4 58//4 64//4
